<svg xmlns="http://www.w3.org/2000/svg" viewBox="0 0 1123.77 170.08"><defs><style>.cls-1{fill:#0052d9;}.cls-2{fill:#fff;}.cls-3{fill:#0a41db;}</style></defs><title>资源 17</title><g id="图层_2" data-name="图层 2"><g id="图层_1-2" data-name="图层 1"><rect class="cls-1" width="170.08" height="170.08" rx="11.56"/><rect class="cls-2" x="85.02" y="85.04" width="28.4" height="28.4" rx="3.82"/><path class="cls-3" d="M141.76,53a3.8,3.8,0,0,1-3.8,3.8H77.84A21.16,21.16,0,0,0,56.68,78v60.12a3.8,3.8,0,0,1-3.8,3.8H32.08a3.8,3.8,0,0,1-3.8-3.8V70.82A42.41,42.41,0,0,1,70.69,28.41H138a3.8,3.8,0,0,1,3.8,3.8Z"/><path class="cls-2" d="M141.76,53a3.8,3.8,0,0,1-3.8,3.8H77.84A21.16,21.16,0,0,0,56.68,78v60.12a3.8,3.8,0,0,1-3.8,3.8H32.08a3.8,3.8,0,0,1-3.8-3.8V70.82A42.41,42.41,0,0,1,70.69,28.41H138a3.8,3.8,0,0,1,3.8,3.8Z"/><polygon class="cls-2" points="1012.06 68.52 1017.65 68.52 1018.06 66.51 1012.47 66.51 1012.06 68.52"/><path class="cls-2" d="M1025.43,57.38h6.82a21.46,21.46,0,0,1-2-1.85h-4.37Z"/><polygon class="cls-2" points="1013.15 62.95 1018.75 62.95 1019.15 61.09 1013.56 61.09 1013.15 62.95"/><path class="cls-2" d="M1025.29,48.68h-5.18a27,27,0,0,1-2.87,2.71h9.55A17.55,17.55,0,0,1,1025.29,48.68Z"/><path class="cls-2" d="M1004.29,59l-4.24,21.87a61.19,61.19,0,0,0,3.55-6.74l1.24.41,3-16c-1.09.57-2,1.28-3.14,1.85C1004.43,59.67,1004.69,59.67,1004.29,59Z"/><path class="cls-2" d="M994.33,60.09h3.41l1.5-8h-3.41C995.28,55.25,994.88,57.67,994.33,60.09Z"/><polygon class="cls-2" points="1001.97 37.84 998.56 37.84 996.92 46.26 1000.33 46.26 1001.97 37.84"/><polygon class="cls-2" points="1014.11 57.38 1019.7 57.38 1020.11 55.53 1014.52 55.53 1014.11 57.38"/><path class="cls-2" d="M1114.18,16.52H964a9.58,9.58,0,0,0-9.59,9.58v82.81a1.84,1.84,0,0,0,2.84,1.53L970.19,102a12.24,12.24,0,0,1,6.71-2h137.28a9.59,9.59,0,0,0,9.59-9.59V26.1A9.59,9.59,0,0,0,1114.18,16.52ZM1044,36h7.22a37.09,37.09,0,0,0-.81-5.7l8-.57c.14,2.28.14,4.42.14,6.42h5l-1.23,6h-19.5Zm-34.64,47c-.15-2.71-.28-5.14-.55-7.57l4.36-1.28c.55,3,.82,5.42,1.09,7.27Zm5.45-8.42,3.82-1.43a45,45,0,0,1,1.77,6l-4.37,1.7A54.6,54.6,0,0,0,1014.79,74.51Zm17.6,5.85a8.69,8.69,0,0,1-7.78,5.56,63.49,63.49,0,0,1-7.64,0,29.64,29.64,0,0,0,0-5c2.59.14,4.37.29,5.46.29,2.31,0,4-1.43,4.77-4.15.41-1.42.82-2.7,1.09-4h-4c.68,1.57,1.5,3.28,2.18,5l-4.09,2.42a36.92,36.92,0,0,0-2-5.85l3.14-1.57H1011.1l-.26,1.43h-5.93l3.06,1a83.54,83.54,0,0,1-4.37,8.42l-3.76-1.78c-.25,1.54-1.13,3.15-4.83,3.77-1,.15-1.63.15-4,.29a31.72,31.72,0,0,0-.41-7.7,5.57,5.57,0,0,0,3-.43c.68-.43.82-1.72,1.09-3l1.36-6.56h-3.68c-1.91,8.7-5.87,16.12-7.5,18.26a17.6,17.6,0,0,0-4.23-5.28,62,62,0,0,0,5-11.56c1-3.43,2.32-9.41,4-18.12L993.51,32h16.1l-4.37,22.4a42.6,42.6,0,0,0,7.5-5.42h-6l.82-4.57h9.68a18.33,18.33,0,0,0,1.92-2.71h-9.55l.81-4.42H1014a28.4,28.4,0,0,0-1.63-4.28l5.31-2.71c.68,1.27,1.64,3.14,2.73,5.42l-3,1.43h3.82a48.65,48.65,0,0,0,2-7.14h6.55a48.23,48.23,0,0,1-2.33,7.14h4.64L1030.34,36a73.7,73.7,0,0,0,4.91-5.85l4.77,2.71c-1.36,1.57-2.45,3-3.55,4.14h3.28l-.82,4.42h-13.5c-.55.86-1.09,1.86-1.64,2.71h16.78l-.82,4.57h-8a15.76,15.76,0,0,0,8.87,5.28c-1.64,2.57-3,4.57-3.83,6.13a13.84,13.84,0,0,1-2.86-1.56l-.54,2.71h-8.46l-.41,1.86h8.46l-.68,3.7h-8.46l-.41,2h12.14A60.42,60.42,0,0,1,1032.39,80.36Zm20.86,5.56h-5.86l.54-3.14h-4.77l-.68,3.57h-5.87L1041,63.1h16.5Zm5-26.11h-17l1.09-5.56h16.91ZM1042.89,51,1044,45.4h16.91l-1,5.57Zm42.28,35.38c-2.32.29-4.36-.71-6-3.28-2.86-4.56-3.4-10.84-1.76-19.12l.54-3,.41-2.15H1073l-.41,2.15-4.77,24.82h-7.37L1065.26,61l.4-2.15h-5.32l1.37-7H1067L1069.48,39h-4l1.37-7h23.86l-5.59,28.83V61c-1.22,6.27-1.64,10.69-1,13.41.28,1.43,1,.14,2.19-3.86,1.77.86,3.82,1.72,6,3C1090.08,82.22,1087.63,86.5,1085.17,86.35Z"/><polygon class="cls-2" points="1050.53 68.94 1045.75 68.94 1044.25 76.93 1049.03 76.93 1050.53 68.94"/><polygon class="cls-2" points="1074.39 51.68 1079.85 51.68 1082.31 38.84 1076.85 38.84 1074.39 51.68"/><path class="cls-2" d="M974.18,132.86v15.38h-7.33v2.5h8.61v3.56h-8.61v5.93h-3.69V154.3h-8.75v-3.56h8.75v-2.5h-7.38V132.86ZM963.94,121v10h-9V121Zm-3.2,3h-2.55v4h2.55Zm2.42,14.85v-2.68h-3.7v2.68Zm0,3.17h-3.69v2.77h3.69Zm11.9-11h-9V121h9Zm-8.21,7.86h3.6v-2.68h-3.6Zm3.6,3.17h-3.6v2.77h3.6Zm1.36-18h-2.46v4h2.46ZM994,133l-10.15,2.33c.18,2.72.44,5,.75,6.81.18,1,.35,2,.53,2.85a60,60,0,0,0,4.66-9.18L993,138a63.36,63.36,0,0,1-6.68,12.17,13.7,13.7,0,0,0,.62,1.58c.79,1.94,1.45,2.95,1.89,2.95.79,0,1.62-2.07,2.46-6.2l3.51,1.89c-1.23,6-3,9.05-5.31,9.05q-2.17,0-4.62-3.95a14.19,14.19,0,0,1-1.14-2.16,25,25,0,0,1-7.2,5.54L974,155.49a27.84,27.84,0,0,0,8.12-6.59c-.48-1.67-.92-3.52-1.31-5.5a67.91,67.91,0,0,1-1-7.2l-4.13.92-.62-4,4.44-1c-.27-3.69-.35-7.82-.35-12.38h4.17c0,4.3.09,8.12.26,11.42l9.76-2.25ZM991.8,126l-3.29,2.28a51.14,51.14,0,0,0-3.83-5.67l3.21-2A42.05,42.05,0,0,1,991.8,126"/><path class="cls-2" d="M1034.66,159.88h-4.08v-1.67h-9.49v1.67H1017V143.27a12.14,12.14,0,0,0-1.49.62l-1.59-2.07v14.55h-3.56v-1.72h-8v1.72h-3.74V122.49h15.33v7.82a34.23,34.23,0,0,0,6.86-10.54l4.13.83c-.44,1-.88,2-1.32,2.9h11.51v3.21a27.31,27.31,0,0,1-6.06,8.88,41.94,41.94,0,0,0,9.09,4.56l-1.8,3.74a50.46,50.46,0,0,1-10.15-5.84,45.74,45.74,0,0,1-9.09,5.18h17.57Zm-32.34-23.29h2.33V126.27h-2.33Zm0,14.41h2.33V140.24h-2.33Zm8-24.73H1008v10.32h2.37Zm0,14H1008V151h2.37Zm3.56,0a41.64,41.64,0,0,0,9.1-4.88,28.47,28.47,0,0,1-3.91-4.65,32.49,32.49,0,0,1-3,3.34l-2.2-2.6Zm16.66,14.06v-7.21h-9.48v7.21Zm-.31-26.89h-8.88a1.19,1.19,0,0,0-.17.31,23.35,23.35,0,0,0,4.52,5.36,23.83,23.83,0,0,0,4.53-5.67"/><path class="cls-2" d="M1043.56,159.7l-.92-4a27,27,0,0,0,3.25.22,1.46,1.46,0,0,0,1.62-1.62v-9.49c-1.67.7-3.29,1.31-4.92,1.89l-1-4.22a55.22,55.22,0,0,0,6-1.89v-9.18h-5v-4h5v-7.69h4.13v7.69h4.66v4h-4.66v7.33c1.5-.79,3-1.58,4.44-2.46v4.27c-1.49.87-2.94,1.66-4.44,2.37v12.43c0,2.9-1.45,4.39-4.3,4.39ZM1079,138.09V142a23.85,23.85,0,0,1-6.24,10.11,47.31,47.31,0,0,0,10.06,4.61l-2.24,3.61a53.6,53.6,0,0,1-10.85-5.67,40.47,40.47,0,0,1-12.3,5.8l-2.28-3.51a42.07,42.07,0,0,0,11.15-5.06,21.93,21.93,0,0,1-6.37-9.71h-2.41v-4Zm-2.73-17v9.18c0,1,.62,1.45,1.85,1.45h3.34v3.87H1077c-3.21,0-4.79-1.45-4.79-4.35V125h-7.56v2c0,4.22-2.06,7.52-6.1,9.84l-2.77-3.2c3.16-1.45,4.79-3.52,4.79-6.2v-6.37Zm-7,28.43a23,23,0,0,0,5.53-7.43h-11a18.46,18.46,0,0,0,5.45,7.43"/><path class="cls-2" d="M1095.91,130.23a49.19,49.19,0,0,1-9.23,7.68l-2.59-2.89a46.36,46.36,0,0,0,8.75-7.08Zm2.37-.27-2.37-3.12a15.33,15.33,0,0,0,6.59-7.51l4,.49c-.26.7-.57,1.4-.88,2.1h16.22v3a29.58,29.58,0,0,1-3.69,5.67l-2.95-2.38a14.88,14.88,0,0,0,2.15-2.77h-5.88a14.11,14.11,0,0,1-.4,2.16q3.11,4.22,12.75,5.67l-1.59,3.51c-6.5-1.23-10.72-3.34-12.65-6.24-2,2.38-5.36,4.13-10.19,5.36h19.07V154h-8.57a96.2,96.2,0,0,1,13.57,3.16l-1.36,3.3a87.67,87.67,0,0,0-14.67-3.83l1.36-2.63h-10.11l1.81,2.32q-4.87,2.58-14,4.09l-1.89-3.2a60.08,60.08,0,0,0,13-3.21H1090V135.89h6.77l-1.32-2.77c6.59-1.14,10.5-3.11,11.64-5.84a16.48,16.48,0,0,0,.31-1.85h-4.13a23.65,23.65,0,0,1-5,4.53m-3.64-5.44-2.69,2.67a37.8,37.8,0,0,0-6.67-4.48l2.68-2.55a46.64,46.64,0,0,1,6.68,4.36m19.72,16.6v-2.07h-20.29v2.07Zm0,2.77h-20.29v1.93h20.29Zm0,4.66h-20.29v2.15h20.29Z"/><path class="cls-2" d="M373.08,18.46H310.91a8.51,8.51,0,0,0-8.51-8.52H281.46a3.27,3.27,0,0,0-3.27,3.28v5.24H216a3.27,3.27,0,0,0-3.27,3.28V54.15A3.28,3.28,0,0,0,216,57.42H229.1a3.28,3.28,0,0,0,3.28-3.27V28.28H356.73V57.42H360A16.41,16.41,0,0,0,376.36,41V21.74a3.27,3.27,0,0,0-3.28-3.28"/><path class="cls-2" d="M343.63,57.32h-97.5a3.26,3.26,0,0,0-3.28,3.27V83.5a3.26,3.26,0,0,0,3.28,3.26h97.5a3.27,3.27,0,0,0,3.28-3.26V60.59a3.27,3.27,0,0,0-3.28-3.27M327.28,77H262.47V67.13h64.81Z"/><path class="cls-2" d="M346.91,41.16a3.27,3.27,0,0,0-3.28-3.27H245.47a3.26,3.26,0,0,0-3.27,3.27v3.28a3.26,3.26,0,0,0,3.27,3.27h98.16a3.27,3.27,0,0,0,3.28-3.27Z"/><path class="cls-2" d="M366.54,96.41h-144a3.28,3.28,0,0,0-3.27,3.27v57.54a3.28,3.28,0,0,0,3.27,3.27h130.9a16.37,16.37,0,0,0,16.36-16.36V99.68a3.26,3.26,0,0,0-3.27-3.27m-81.79,54.26H238.93V133.24h45.82Zm0-27.24H238.93v-17.2h45.82Zm65.42,27.24h-45.8V133.24h45.8Zm0-27.24h-45.8v-17.2h45.8Z"/><path class="cls-2" d="M628.39,102H582.63a3.28,3.28,0,0,0-3.28,3.28v51.93a3.26,3.26,0,0,0,3.27,3.26H615.2A16.46,16.46,0,0,0,631.66,144V105.3a3.28,3.28,0,0,0-3.27-3.28M612,150.68H599V111.86H612Z"/><path class="cls-2" d="M628.39,43.75H582.61A3.26,3.26,0,0,0,579.35,47v3.23a3.27,3.27,0,0,0,3.26,3.29h45.78a3.29,3.29,0,0,0,3.27-3.29V47a3.28,3.28,0,0,0-3.27-3.28"/><path class="cls-2" d="M603.69,35.45h13.09a3.26,3.26,0,0,0,3.27-3.27V30.87a16.37,16.37,0,0,0-16.36-16.38H590.61a3.28,3.28,0,0,0-3.27,3.27v1.32a16.36,16.36,0,0,0,16.35,16.37"/><path class="cls-2" d="M628.39,63.4H582.61a3.26,3.26,0,0,0-3.26,3.28v3.23a3.27,3.27,0,0,0,3.26,3.29h45.78a3.29,3.29,0,0,0,3.27-3.29V66.68a3.28,3.28,0,0,0-3.27-3.28"/><path class="cls-2" d="M628.39,83H582.61a3.26,3.26,0,0,0-3.26,3.27V89.5a3.26,3.26,0,0,0,3.26,3.28h45.78a3.28,3.28,0,0,0,3.27-3.28V86.26A3.28,3.28,0,0,0,628.39,83"/><path class="cls-2" d="M651.27,118.88a3.28,3.28,0,0,0,3.27,3.29h72a3.29,3.29,0,0,0,3.27-3.29V85.52a82.56,82.56,0,0,0,13,7.26v-6a8.49,8.49,0,0,0-2.68-6,82.86,82.86,0,0,1-20.39-30.22h19.81a3.27,3.27,0,0,0,3.26-3.28V44.05a3.27,3.27,0,0,0-3.26-3.28H716.61a81.86,81.86,0,0,1-2.1-12.22h25a3.27,3.27,0,0,0,3.26-3.28V22a3.27,3.27,0,0,0-3.26-3.27H714.16c0-.45,0-.91,0-1.36a3.3,3.3,0,0,0-3.3-3.21H697a3.27,3.27,0,0,0-3.12,3.22c0,1.2,0,2.4.08,3.6A81.88,81.88,0,0,0,706.2,60.8H674.86A82,82,0,0,0,687.12,21c0-1.2.07-2.4.07-3.6a3.26,3.26,0,0,0-3.11-3.22H641.53a3.26,3.26,0,0,0-3.27,3.27V20.7A3.27,3.27,0,0,0,641.53,24h25.32a82.8,82.8,0,0,1-2.4,16.79H641.53a3.27,3.27,0,0,0-3.27,3.28v3.23a3.27,3.27,0,0,0,3.27,3.28h19.82A82.86,82.86,0,0,1,641,80.78a8.51,8.51,0,0,0-2.7,6.21v5.8a81.14,81.14,0,0,0,13-7.3Zm59-6.5H670.88V90.14h39.34Zm3.09-41.79a83.13,83.13,0,0,0,9.74,9.76H658a83.13,83.13,0,0,0,9.74-9.76Z"/><path class="cls-2" d="M739.57,150.67h-15.9L733,127.74H718.29a8.44,8.44,0,0,0-7.78,5.19l-7.31,17.74H677.82l-7.3-17.74a8.44,8.44,0,0,0-7.78-5.19H648l9.33,22.93H641.46A3.27,3.27,0,0,0,638.2,154v3.28a3.26,3.26,0,0,0,3.26,3.26h98.11a3.27,3.27,0,0,0,3.27-3.26V154a3.28,3.28,0,0,0-3.27-3.28"/><path class="cls-2" d="M453.52,99c-6.07,14-18.3,44.33-18.3,44.33h17a4.84,4.84,0,0,0,4.6-3.17l19-45.92H461.16A8.42,8.42,0,0,0,453.52,99"/><path class="cls-2" d="M412.71,35.38h13.1a3.26,3.26,0,0,0,3.26-3.26V30.81A16.37,16.37,0,0,0,412.7,14.44H399.63a3.28,3.28,0,0,0-3.28,3.28V19a16.36,16.36,0,0,0,16.36,16.36"/><path class="cls-2" d="M433,150.67a8.5,8.5,0,0,1-8.51-8.5V53.69h5.3a3.28,3.28,0,0,0,3.28-3.28V47.14a3.27,3.27,0,0,0-3.28-3.27H399.55a3.27,3.27,0,0,0-3.26,3.27v3.28a3.26,3.26,0,0,0,3.27,3.27h5.32v88.4a8.55,8.55,0,0,1-6.21,8.26,3.31,3.31,0,0,0-2.38,3.18v7h5.81a16.42,16.42,0,0,0,12.59-6.57v0a15.9,15.9,0,0,0,12.55,6.53H551a8.39,8.39,0,0,0,8.39-8.38v-1.44Z"/><path class="cls-2" d="M554.17,76.88H507.23V53.64h24.84s4.47,10.71,5.9,14.28a4.87,4.87,0,0,0,4.58,3.16h17s-15.2-38.25-21.65-52.34a8.47,8.47,0,0,0-7.81-4.61H464.24a8.46,8.46,0,0,0-7.85,5c-6.05,14.11-21.17,51.95-21.17,51.95h17a4.91,4.91,0,0,0,4.6-3.16c1.43-3.57,5.9-14.22,5.9-14.22h24.84V76.88H440.62a3.28,3.28,0,0,0-3.28,3.28v3.27a3.26,3.26,0,0,0,3.27,3.26h47v38.56h0a.2.2,0,0,1,0,0,8.47,8.47,0,0,1-6.66,8.28h0a3.27,3.27,0,0,0-2.55,3.18v6.55h20.36a8.47,8.47,0,0,0,8.47-8.46V86.69h46.95a3.27,3.27,0,0,0,3.27-3.26V80.15a3.29,3.29,0,0,0-3.28-3.27m-87.44-33L475,24h44.92c2.14,5.12,5.46,13.31,8.19,19.92Z"/><path class="cls-2" d="M541.09,99c5.78,13.33,18.3,44.33,18.3,44.33h-17a4.86,4.86,0,0,1-4.6-3.17l-19-45.92h14.65A8.43,8.43,0,0,1,541.09,99"/><path class="cls-2" d="M922.85,104.15h-157a3.27,3.27,0,0,0-3.27,3.27v3.29a3.28,3.28,0,0,0,3.27,3.27h19.52L766.29,160.5h17.25a4.87,4.87,0,0,0,4.58-3.17L805.88,114H906.5V142.1a8.57,8.57,0,0,1-8.58,8.57H862.48v.65c0,5.7,3.72,9.18,8.84,9.18h46.31a8.49,8.49,0,0,0,8.49-8.49V107.42a3.28,3.28,0,0,0-3.27-3.27"/><path class="cls-2" d="M827.81,74.05h33.1a91,91,0,0,0,65.19,27.06V98.3a8.27,8.27,0,0,0-6.78-8.18,78.7,78.7,0,0,1-35.44-16.07h38.91a3.3,3.3,0,0,0,3.29-3.29V67.53a3.28,3.28,0,0,0-3.27-3.27H836.24A91.62,91.62,0,0,0,846,47.83h76.79a3.29,3.29,0,0,0,3.29-3.29V41.31A3.29,3.29,0,0,0,922.81,38H908.27l8.14-19.82H901.59a8.44,8.44,0,0,0-7.79,5.19L887.8,38h-38a91.11,91.11,0,0,0,4.41-24.8,3.3,3.3,0,0,0-3.28-3.42h-13.1a3.34,3.34,0,0,0-3.33,3.36v.46A78.7,78.7,0,0,1,830.25,38H801L794.91,23.4a8.44,8.44,0,0,0-7.78-5.19H772.4L780.53,38H765.88a3.27,3.27,0,0,0-3.26,3.27v3.26a3.28,3.28,0,0,0,3.26,3.27h60.23a79,79,0,0,1-11.05,16.43H765.88a3.26,3.26,0,0,0-3.26,3.26v3.27a3.27,3.27,0,0,0,3.26,3.26h39a78.62,78.62,0,0,1-35.26,16,8.35,8.35,0,0,0-7,8.21v2.81a91,91,0,0,0,65.19-27.06"/></g></g></svg>